<mxfile host="app.diagrams.net" modified="2024-06-17T12:59:11.617Z" agent="Mozilla/5.0 (Macintosh; Intel Mac OS X 10_15_7) AppleWebKit/537.36 (KHTML, like Gecko) Chrome/126.0.0.0 Safari/537.36" etag="IaPXzNvBYMXp_Wag0Lzb" version="24.5.4" type="device">
  <diagram name="Page-1" id="13e1069c-82ec-6db2-03f1-153e76fe0fe0">
    <mxGraphModel dx="1185" dy="655" grid="1" gridSize="10" guides="1" tooltips="1" connect="1" arrows="1" fold="1" page="1" pageScale="1" pageWidth="1100" pageHeight="850" background="none" math="0" shadow="0">
      <root>
        <mxCell id="0" />
        <mxCell id="1" parent="0" />
        <mxCell id="JwXiwwNrS793XNt4KXQ2-18" value="Factory" style="shape=umlLifeline;perimeter=lifelinePerimeter;whiteSpace=wrap;html=1;container=1;collapsible=0;recursiveResize=0;outlineConnect=0;rounded=1;shadow=0;comic=0;labelBackgroundColor=none;strokeWidth=1;fontFamily=Verdana;fontSize=12;align=center;" vertex="1" parent="1">
          <mxGeometry x="320" y="90" width="100" height="230" as="geometry" />
        </mxCell>
        <mxCell id="JwXiwwNrS793XNt4KXQ2-19" value="" style="html=1;points=[];perimeter=orthogonalPerimeter;rounded=0;shadow=0;comic=0;labelBackgroundColor=none;strokeWidth=1;fontFamily=Verdana;fontSize=12;align=center;" vertex="1" parent="JwXiwwNrS793XNt4KXQ2-18">
          <mxGeometry x="45" y="60" width="10" height="140" as="geometry" />
        </mxCell>
        <mxCell id="JwXiwwNrS793XNt4KXQ2-30" value="" style="html=1;verticalAlign=bottom;endArrow=open;dashed=1;endSize=8;labelBackgroundColor=none;fontFamily=Verdana;fontSize=12;edgeStyle=elbowEdgeStyle;elbow=vertical;" edge="1" parent="JwXiwwNrS793XNt4KXQ2-18">
          <mxGeometry relative="1" as="geometry">
            <mxPoint x="-134.5" y="200.3" as="targetPoint" />
            <Array as="points">
              <mxPoint x="-84.5" y="200" />
              <mxPoint x="-84.5" y="270" />
              <mxPoint x="-94.5" y="260" />
            </Array>
            <mxPoint x="44.999999999999886" y="200" as="sourcePoint" />
          </mxGeometry>
        </mxCell>
        <mxCell id="JwXiwwNrS793XNt4KXQ2-22" value="ERC-20&lt;div style=&quot;line-height: 100%;&quot;&gt;Gift token&lt;/div&gt;&lt;div style=&quot;line-height: 100%;&quot;&gt;&lt;br&gt;&lt;/div&gt;" style="shape=umlLifeline;perimeter=lifelinePerimeter;whiteSpace=wrap;html=1;container=1;collapsible=0;recursiveResize=0;outlineConnect=0;rounded=1;shadow=0;comic=0;labelBackgroundColor=none;strokeWidth=1;fontFamily=Verdana;fontSize=12;align=center;" vertex="1" parent="1">
          <mxGeometry x="440" y="90" width="100" height="230" as="geometry" />
        </mxCell>
        <mxCell id="JwXiwwNrS793XNt4KXQ2-23" value="" style="html=1;points=[];perimeter=orthogonalPerimeter;rounded=0;shadow=0;comic=0;labelBackgroundColor=none;strokeWidth=1;fontFamily=Verdana;fontSize=12;align=center;" vertex="1" parent="JwXiwwNrS793XNt4KXQ2-22">
          <mxGeometry x="45" y="120" width="10" height="30" as="geometry" />
        </mxCell>
        <mxCell id="JwXiwwNrS793XNt4KXQ2-26" value="Gift account" style="shape=umlLifeline;perimeter=lifelinePerimeter;whiteSpace=wrap;html=1;container=1;collapsible=0;recursiveResize=0;outlineConnect=0;rounded=1;shadow=0;comic=0;labelBackgroundColor=none;strokeWidth=1;fontFamily=Verdana;fontSize=12;align=center;" vertex="1" parent="1">
          <mxGeometry x="130" y="90" width="100" height="230" as="geometry" />
        </mxCell>
        <mxCell id="JwXiwwNrS793XNt4KXQ2-27" value="" style="html=1;points=[];perimeter=orthogonalPerimeter;rounded=0;shadow=0;comic=0;labelBackgroundColor=none;strokeWidth=1;fontFamily=Verdana;fontSize=12;align=center;" vertex="1" parent="JwXiwwNrS793XNt4KXQ2-26">
          <mxGeometry x="45" y="60" width="10" height="140" as="geometry" />
        </mxCell>
        <mxCell id="JwXiwwNrS793XNt4KXQ2-37" value="" style="html=1;points=[];perimeter=orthogonalPerimeter;rounded=0;shadow=0;comic=0;labelBackgroundColor=none;strokeWidth=1;fontFamily=Verdana;fontSize=12;align=center;" vertex="1" parent="JwXiwwNrS793XNt4KXQ2-26">
          <mxGeometry x="50" y="90" width="10" height="80" as="geometry" />
        </mxCell>
        <mxCell id="JwXiwwNrS793XNt4KXQ2-28" value="claim internal" style="html=1;verticalAlign=bottom;endArrow=block;labelBackgroundColor=none;fontFamily=Verdana;fontSize=12;edgeStyle=elbowEdgeStyle;elbow=vertical;entryX=0.016;entryY=0.001;entryDx=0;entryDy=0;entryPerimeter=0;exitX=1.039;exitY=0.002;exitDx=0;exitDy=0;exitPerimeter=0;" edge="1" parent="1" source="JwXiwwNrS793XNt4KXQ2-27" target="JwXiwwNrS793XNt4KXQ2-19">
          <mxGeometry relative="1" as="geometry">
            <mxPoint x="200" y="230" as="sourcePoint" />
            <mxPoint x="270" y="225" as="targetPoint" />
            <Array as="points">
              <mxPoint x="240" y="150" />
            </Array>
          </mxGeometry>
        </mxCell>
        <mxCell id="JwXiwwNrS793XNt4KXQ2-35" style="edgeStyle=orthogonalEdgeStyle;rounded=0;orthogonalLoop=1;jettySize=auto;html=1;endArrow=block;endFill=1;entryX=1.1;entryY=0.048;entryDx=0;entryDy=0;entryPerimeter=0;exitX=0.011;exitY=0.238;exitDx=0;exitDy=0;exitPerimeter=0;" edge="1" parent="1" source="JwXiwwNrS793XNt4KXQ2-19" target="JwXiwwNrS793XNt4KXQ2-37">
          <mxGeometry relative="1" as="geometry">
            <mxPoint x="375" y="179.60857142857137" as="sourcePoint" />
            <mxPoint x="240" y="190" as="targetPoint" />
            <Array as="points">
              <mxPoint x="360" y="183" />
            </Array>
          </mxGeometry>
        </mxCell>
        <mxCell id="JwXiwwNrS793XNt4KXQ2-39" value="Transfer" style="edgeLabel;html=1;align=center;verticalAlign=middle;resizable=0;points=[];" vertex="1" connectable="0" parent="JwXiwwNrS793XNt4KXQ2-35">
          <mxGeometry x="-0.0621" y="-1" relative="1" as="geometry">
            <mxPoint x="-8" y="-13" as="offset" />
          </mxGeometry>
        </mxCell>
        <mxCell id="JwXiwwNrS793XNt4KXQ2-40" style="edgeStyle=orthogonalEdgeStyle;rounded=0;orthogonalLoop=1;jettySize=auto;html=1;entryX=0.029;entryY=0.132;entryDx=0;entryDy=0;entryPerimeter=0;" edge="1" parent="1" source="JwXiwwNrS793XNt4KXQ2-37" target="JwXiwwNrS793XNt4KXQ2-23">
          <mxGeometry relative="1" as="geometry">
            <Array as="points">
              <mxPoint x="470" y="215" />
            </Array>
          </mxGeometry>
        </mxCell>
        <mxCell id="JwXiwwNrS793XNt4KXQ2-41" value="Transfer to receiver" style="edgeLabel;html=1;align=center;verticalAlign=middle;resizable=0;points=[];" vertex="1" connectable="0" parent="JwXiwwNrS793XNt4KXQ2-40">
          <mxGeometry x="-0.3421" y="1" relative="1" as="geometry">
            <mxPoint x="-11" y="-14" as="offset" />
          </mxGeometry>
        </mxCell>
        <mxCell id="JwXiwwNrS793XNt4KXQ2-42" style="edgeStyle=orthogonalEdgeStyle;rounded=0;orthogonalLoop=1;jettySize=auto;html=1;dashed=1;endArrow=open;endFill=0;entryX=1.271;entryY=0.727;entryDx=0;entryDy=0;entryPerimeter=0;" edge="1" parent="1" source="JwXiwwNrS793XNt4KXQ2-23" target="JwXiwwNrS793XNt4KXQ2-37">
          <mxGeometry relative="1" as="geometry">
            <mxPoint x="250" y="230" as="targetPoint" />
            <Array as="points">
              <mxPoint x="250" y="240" />
              <mxPoint x="250" y="238" />
            </Array>
          </mxGeometry>
        </mxCell>
        <mxCell id="JwXiwwNrS793XNt4KXQ2-43" style="edgeStyle=orthogonalEdgeStyle;rounded=0;orthogonalLoop=1;jettySize=auto;html=1;dashed=1;endArrow=block;endFill=1;" edge="1" parent="1" source="JwXiwwNrS793XNt4KXQ2-37">
          <mxGeometry relative="1" as="geometry">
            <mxPoint x="360" y="260" as="targetPoint" />
            <Array as="points">
              <mxPoint x="360" y="260" />
            </Array>
          </mxGeometry>
        </mxCell>
      </root>
    </mxGraphModel>
  </diagram>
</mxfile>
